<svg xmlns="http://www.w3.org/2000/svg" width="66.25" height="58.228" viewBox="0 0 66.25 58.228">
  <g id="fax" transform="translate(0 -31)">
    <path id="パス_7" data-name="パス 7" d="M60.427,211H5.823A5.829,5.829,0,0,0,0,216.823v11.645a5.829,5.829,0,0,0,5.823,5.823h7.893V232.35a5.829,5.829,0,0,1,5.823-5.823H46.711a5.829,5.829,0,0,1,5.823,5.823v1.941h7.893a5.829,5.829,0,0,0,5.823-5.823V216.823A5.829,5.829,0,0,0,60.427,211Zm-19.539,9.7a1.941,1.941,0,1,1,1.941-1.941A1.941,1.941,0,0,1,40.889,220.7Zm7.764,0a1.941,1.941,0,1,1,1.941-1.941A1.941,1.941,0,0,1,48.652,220.7Z" transform="translate(0 -156.709)" fill="#1255bd"/>
    <path id="パス_8" data-name="パス 8" d="M331,32.518v7.567h7.567A9.731,9.731,0,0,0,331,32.518Z" transform="translate(-288.17 -1.322)" fill="#1255bd"/>
    <path id="パス_9" data-name="パス 9" d="M122.941,31A1.94,1.94,0,0,0,121,32.941V50.409h34.936V42.645h-9.7a1.94,1.94,0,0,1-1.941-1.941V31Z" transform="translate(-105.343)" fill="#1255bd"/>
    <path id="パス_10" data-name="パス 10" d="M165.114,376.527a1.94,1.94,0,0,0,1.941-1.941V362.941A1.94,1.94,0,0,0,165.114,361H137.941A1.94,1.94,0,0,0,136,362.941v11.645a1.94,1.94,0,0,0,1.941,1.941Zm-21.35-9.7h15.527a1.941,1.941,0,0,1,0,3.882H143.764a1.941,1.941,0,0,1,0-3.882Z" transform="translate(-118.402 -287.3)" fill="#1255bd"/>
  </g>
</svg>
