<svg id="instagram" xmlns="http://www.w3.org/2000/svg" width="23.608" height="23.608" viewBox="0 0 23.608 23.608">
  <path id="パス_1" data-name="パス 1" d="M211.519,209.259A2.259,2.259,0,1,1,209.259,207,2.259,2.259,0,0,1,211.519,209.259Zm0,0" transform="translate(-197.455 -197.455)" fill="#fff"/>
  <path id="パス_2" data-name="パス 2" d="M146.325,137.048a2.245,2.245,0,0,0-1.286-1.286,3.75,3.75,0,0,0-1.258-.233c-.715-.033-.929-.04-2.739-.04s-2.024.007-2.739.039a3.753,3.753,0,0,0-1.258.233,2.246,2.246,0,0,0-1.287,1.286,3.752,3.752,0,0,0-.233,1.259c-.033.715-.04.929-.04,2.739s.007,2.024.04,2.739a3.75,3.75,0,0,0,.233,1.258,2.245,2.245,0,0,0,1.286,1.286,3.746,3.746,0,0,0,1.259.233c.715.033.929.039,2.739.039s2.025-.007,2.739-.039a3.746,3.746,0,0,0,1.259-.233,2.245,2.245,0,0,0,1.286-1.286,3.753,3.753,0,0,0,.233-1.258c.033-.715.039-.929.039-2.739s-.007-2.024-.039-2.739A3.746,3.746,0,0,0,146.325,137.048Zm-5.284,7.478a3.481,3.481,0,1,1,3.481-3.481A3.481,3.481,0,0,1,141.041,144.526Zm3.618-6.285a.813.813,0,1,1,.813-.813A.813.813,0,0,1,144.659,138.24Zm0,0" transform="translate(-129.237 -129.241)" fill="#fff"/>
  <path id="パス_3" data-name="パス 3" d="M11.8,0a11.8,11.8,0,1,0,11.8,11.8A11.805,11.805,0,0,0,11.8,0Zm6.737,14.6a4.973,4.973,0,0,1-.315,1.645,3.466,3.466,0,0,1-1.982,1.982,4.976,4.976,0,0,1-1.645.315c-.723.033-.954.041-2.794.041s-2.072-.008-2.795-.041a4.976,4.976,0,0,1-1.645-.315,3.466,3.466,0,0,1-1.982-1.982A4.972,4.972,0,0,1,5.067,14.6c-.033-.723-.041-.954-.041-2.795s.008-2.072.041-2.794a4.973,4.973,0,0,1,.315-1.645A3.468,3.468,0,0,1,7.364,5.382,4.978,4.978,0,0,1,9.01,5.067c.723-.033.954-.041,2.794-.041s2.072.008,2.794.041a4.979,4.979,0,0,1,1.645.315,3.467,3.467,0,0,1,1.982,1.983,4.972,4.972,0,0,1,.315,1.645c.033.723.041.954.041,2.794S18.574,13.876,18.541,14.6Zm0,0" fill="#fff"/>
</svg>
