<svg id="twitter-logo-on-black-background" xmlns="http://www.w3.org/2000/svg" width="23.608" height="23.608" viewBox="0 0 23.608 23.608">
  <g id="post-twitter">
    <path id="パス_4" data-name="パス 4" d="M21.247,0H2.361A2.368,2.368,0,0,0,0,2.361V21.247a2.368,2.368,0,0,0,2.361,2.361H21.247a2.368,2.368,0,0,0,2.361-2.361V2.361A2.368,2.368,0,0,0,21.247,0ZM18.532,8.617c-.118,5.43-3.541,9.207-8.735,9.443a8.592,8.592,0,0,1-5.076-1.416,6.266,6.266,0,0,0,4.6-1.3A3.189,3.189,0,0,1,6.374,13.1a4.761,4.761,0,0,0,1.3,0A3.216,3.216,0,0,1,5.194,9.915a2.38,2.38,0,0,0,1.3.354A3.49,3.49,0,0,1,5.548,6.02,9.354,9.354,0,0,0,12.04,9.325C11.214,6.02,15.7,4.249,17.47,6.492a7.952,7.952,0,0,0,2.007-.708,3.337,3.337,0,0,1-1.3,1.771,6.767,6.767,0,0,0,1.653-.472C19.713,7.673,19.123,8.145,18.532,8.617Z" fill="#fff"/>
  </g>
</svg>
