<svg xmlns="http://www.w3.org/2000/svg" width="23.608" height="16.529" viewBox="0 0 23.608 16.529">
  <path id="youtube" d="M23.122-3.5a2.958,2.958,0,0,0-2.081-2.081c-1.847-.505-9.237-.505-9.237-.505s-7.39,0-9.237.486A3.018,3.018,0,0,0,.486-3.5,31.164,31.164,0,0,0,0,2.183,31.05,31.05,0,0,0,.486,7.861,2.958,2.958,0,0,0,2.567,9.942c1.867.506,9.237.506,9.237.506s7.39,0,9.237-.486A2.958,2.958,0,0,0,23.122,7.88,31.174,31.174,0,0,0,23.608,2.2,29.583,29.583,0,0,0,23.122-3.5ZM9.451,5.722V-1.357L15.6,2.183Zm0,0" transform="translate(0 6.082)" fill="#fff"/>
</svg>
