<svg xmlns="http://www.w3.org/2000/svg" width="229.908" height="160.972" viewBox="0 0 229.908 160.972">
  <path id="youtube_greenlogo" d="M225.171,19.106A28.8,28.8,0,0,0,204.908-1.159c-17.991-4.923-89.957-4.923-89.957-4.923S42.989-6.082,25-1.346A29.387,29.387,0,0,0,4.735,19.106C0,37.1,0,74.4,0,74.4s0,37.5,4.735,55.3A28.807,28.807,0,0,0,25,149.966c18.179,4.924,89.955,4.924,89.955,4.924s71.963,0,89.954-4.736a28.8,28.8,0,0,0,20.266-20.263c4.733-17.991,4.733-55.3,4.733-55.3S230.1,37.1,225.171,19.106ZM92.039,108.871V39.938L151.882,74.4Zm0,0" transform="translate(0 6.082)" fill="#b3e3c6"/>
</svg>
